<mxfile>
    <diagram id="BXpXVYc90v0nnxQ19TnA" name="Page-1">
        <mxGraphModel dx="1359" dy="996" grid="0" gridSize="10" guides="1" tooltips="1" connect="1" arrows="1" fold="1" page="0" pageScale="1" pageWidth="827" pageHeight="1169" math="0" shadow="0">
            <root>
                <mxCell id="0"/>
                <mxCell id="1" parent="0"/>
                <mxCell id="0qFAtepqO-szBmzJQbjk-1" value="" style="rounded=0;whiteSpace=wrap;html=1;fillColor=#f8cecc;strokeColor=#b85450;" parent="1" vertex="1">
                    <mxGeometry x="15" y="449.76" width="180" height="100" as="geometry"/>
                </mxCell>
                <mxCell id="pBBPPw8ruFpS8gXTTpw1-83" value="" style="rounded=0;whiteSpace=wrap;html=1;fillColor=#e1d5e7;strokeColor=#9673a6;" parent="1" vertex="1">
                    <mxGeometry x="267" y="317" width="875" height="364" as="geometry"/>
                </mxCell>
                <mxCell id="pBBPPw8ruFpS8gXTTpw1-10" value="" style="rounded=0;whiteSpace=wrap;html=1;fillColor=#d5e8d4;strokeColor=#82b366;" parent="1" vertex="1">
                    <mxGeometry x="485" y="449.76" width="96" height="100" as="geometry"/>
                </mxCell>
                <mxCell id="pBBPPw8ruFpS8gXTTpw1-3" value="" style="rounded=0;whiteSpace=wrap;html=1;fillColor=#fff2cc;strokeColor=#d6b656;" parent="1" vertex="1">
                    <mxGeometry x="600" y="440" width="528" height="219" as="geometry"/>
                </mxCell>
                <mxCell id="pBBPPw8ruFpS8gXTTpw1-2" value="" style="rounded=0;whiteSpace=wrap;html=1;fillColor=#dae8fc;strokeColor=#6c8ebf;" parent="1" vertex="1">
                    <mxGeometry x="283" y="449.76" width="180" height="100" as="geometry"/>
                </mxCell>
                <mxCell id="pBBPPw8ruFpS8gXTTpw1-4" style="edgeStyle=orthogonalEdgeStyle;rounded=0;orthogonalLoop=1;jettySize=auto;html=1;exitX=0.5;exitY=1;exitDx=0;exitDy=0;" parent="1" source="pBBPPw8ruFpS8gXTTpw1-3" target="pBBPPw8ruFpS8gXTTpw1-3" edge="1">
                    <mxGeometry relative="1" as="geometry"/>
                </mxCell>
                <mxCell id="pBBPPw8ruFpS8gXTTpw1-67" style="edgeStyle=orthogonalEdgeStyle;rounded=0;orthogonalLoop=1;jettySize=auto;html=1;exitX=1;exitY=0.5;exitDx=0;exitDy=0;entryX=0;entryY=0.5;entryDx=0;entryDy=0;startArrow=classic;startFill=1;" parent="1" source="pBBPPw8ruFpS8gXTTpw1-6" target="pBBPPw8ruFpS8gXTTpw1-8" edge="1">
                    <mxGeometry relative="1" as="geometry">
                        <mxPoint x="649.9999999999998" y="499.64" as="targetPoint"/>
                    </mxGeometry>
                </mxCell>
                <mxCell id="pBBPPw8ruFpS8gXTTpw1-6" value="ETH" style="rounded=0;whiteSpace=wrap;html=1;" parent="1" vertex="1">
                    <mxGeometry x="338" y="484.64" width="70" height="30" as="geometry"/>
                </mxCell>
                <mxCell id="pBBPPw8ruFpS8gXTTpw1-71" value="" style="edgeStyle=orthogonalEdgeStyle;rounded=0;orthogonalLoop=1;jettySize=auto;html=1;startArrow=classic;startFill=1;entryX=0;entryY=0.25;entryDx=0;entryDy=0;" parent="1" source="pBBPPw8ruFpS8gXTTpw1-8" target="pBBPPw8ruFpS8gXTTpw1-70" edge="1">
                    <mxGeometry relative="1" as="geometry"/>
                </mxCell>
                <mxCell id="pBBPPw8ruFpS8gXTTpw1-8" value="ETH" style="rounded=0;whiteSpace=wrap;html=1;" parent="1" vertex="1">
                    <mxGeometry x="650" y="484.76" width="70" height="30" as="geometry"/>
                </mxCell>
                <mxCell id="pBBPPw8ruFpS8gXTTpw1-72" value="" style="edgeStyle=orthogonalEdgeStyle;rounded=0;orthogonalLoop=1;jettySize=auto;html=1;startArrow=classic;startFill=1;entryX=0;entryY=0.75;entryDx=0;entryDy=0;" parent="1" source="pBBPPw8ruFpS8gXTTpw1-9" target="pBBPPw8ruFpS8gXTTpw1-70" edge="1">
                    <mxGeometry relative="1" as="geometry"/>
                </mxCell>
                <mxCell id="pBBPPw8ruFpS8gXTTpw1-9" value="MATIC" style="rounded=0;whiteSpace=wrap;html=1;" parent="1" vertex="1">
                    <mxGeometry x="650" y="539.76" width="70" height="30" as="geometry"/>
                </mxCell>
                <mxCell id="pBBPPw8ruFpS8gXTTpw1-23" value="YAYO" style="rounded=0;whiteSpace=wrap;html=1;" parent="1" vertex="1">
                    <mxGeometry x="1005" y="512.5" width="70" height="30" as="geometry"/>
                </mxCell>
                <mxCell id="pBBPPw8ruFpS8gXTTpw1-28" value="&lt;font style=&quot;font-size: 14px&quot;&gt;Ethereum Network&lt;/font&gt;" style="text;html=1;strokeColor=none;fillColor=none;align=center;verticalAlign=middle;whiteSpace=wrap;rounded=0;" parent="1" vertex="1">
                    <mxGeometry x="303" y="452" width="142" height="20" as="geometry"/>
                </mxCell>
                <mxCell id="pBBPPw8ruFpS8gXTTpw1-29" value="&lt;font style=&quot;font-size: 14px;&quot;&gt;Matic Network&lt;/font&gt;" style="text;html=1;strokeColor=none;fillColor=none;align=center;verticalAlign=middle;whiteSpace=wrap;rounded=0;fontSize=14;" parent="1" vertex="1">
                    <mxGeometry x="601" y="446" width="526" height="20" as="geometry"/>
                </mxCell>
                <mxCell id="pBBPPw8ruFpS8gXTTpw1-30" value="&lt;b&gt;Transfer&lt;/b&gt;&lt;br&gt;Low gas fee" style="text;html=1;strokeColor=none;fillColor=none;align=center;verticalAlign=middle;whiteSpace=wrap;rounded=0;" parent="1" vertex="1">
                    <mxGeometry x="165" y="385" width="131" height="20" as="geometry"/>
                </mxCell>
                <mxCell id="pBBPPw8ruFpS8gXTTpw1-31" value="" style="shape=flexArrow;endArrow=classic;html=1;startArrow=block;fillColor=#ffffff;width=8;rounded=1;endSize=3;startSize=3;" parent="1" edge="1">
                    <mxGeometry width="50" height="50" relative="1" as="geometry">
                        <mxPoint x="200.5" y="428" as="sourcePoint"/>
                        <mxPoint x="260.5" y="428" as="targetPoint"/>
                    </mxGeometry>
                </mxCell>
                <mxCell id="pBBPPw8ruFpS8gXTTpw1-32" value="&lt;b&gt;Bridge&lt;/b&gt;&lt;br&gt;High gas fee" style="text;html=1;strokeColor=none;fillColor=none;align=center;verticalAlign=middle;whiteSpace=wrap;rounded=0;" parent="1" vertex="1">
                    <mxGeometry x="474.5" y="385" width="117" height="20" as="geometry"/>
                </mxCell>
                <mxCell id="pBBPPw8ruFpS8gXTTpw1-61" style="edgeStyle=orthogonalEdgeStyle;rounded=0;orthogonalLoop=1;jettySize=auto;html=1;exitX=1;exitY=0.5;exitDx=0;exitDy=0;startArrow=none;startFill=0;entryX=0.5;entryY=1;entryDx=0;entryDy=0;" parent="1" source="pBBPPw8ruFpS8gXTTpw1-60" target="pBBPPw8ruFpS8gXTTpw1-9" edge="1">
                    <mxGeometry relative="1" as="geometry">
                        <mxPoint x="494.8275862068965" y="748.5517241379312" as="targetPoint"/>
                    </mxGeometry>
                </mxCell>
                <mxCell id="pBBPPw8ruFpS8gXTTpw1-60" value="Direct buy w/ CC&lt;br&gt;(non-US only)" style="rounded=0;whiteSpace=wrap;html=1;fillColor=#f8cecc;strokeColor=#b85450;" parent="1" vertex="1">
                    <mxGeometry x="45" y="583" width="120" height="60" as="geometry"/>
                </mxCell>
                <mxCell id="pBBPPw8ruFpS8gXTTpw1-65" style="edgeStyle=orthogonalEdgeStyle;rounded=0;orthogonalLoop=1;jettySize=auto;html=1;exitX=0.5;exitY=1;exitDx=0;exitDy=0;startArrow=none;startFill=0;" parent="1" edge="1">
                    <mxGeometry relative="1" as="geometry">
                        <mxPoint x="801.5" y="607" as="sourcePoint"/>
                        <mxPoint x="801.5" y="607" as="targetPoint"/>
                    </mxGeometry>
                </mxCell>
                <mxCell id="pBBPPw8ruFpS8gXTTpw1-79" value="" style="edgeStyle=orthogonalEdgeStyle;rounded=0;orthogonalLoop=1;jettySize=auto;html=1;startArrow=classic;startFill=1;" parent="1" source="pBBPPw8ruFpS8gXTTpw1-70" target="pBBPPw8ruFpS8gXTTpw1-23" edge="1">
                    <mxGeometry relative="1" as="geometry"/>
                </mxCell>
                <mxCell id="pBBPPw8ruFpS8gXTTpw1-80" value="MATIC / YAYO" style="edgeLabel;html=1;align=center;verticalAlign=middle;resizable=0;points=[];" parent="pBBPPw8ruFpS8gXTTpw1-79" vertex="1" connectable="0">
                    <mxGeometry x="-0.0627" relative="1" as="geometry">
                        <mxPoint x="4" as="offset"/>
                    </mxGeometry>
                </mxCell>
                <mxCell id="pBBPPw8ruFpS8gXTTpw1-70" value="QuickSwap" style="rounded=0;whiteSpace=wrap;html=1;" parent="1" vertex="1">
                    <mxGeometry x="776" y="472" width="97" height="111" as="geometry"/>
                </mxCell>
                <mxCell id="pBBPPw8ruFpS8gXTTpw1-77" style="edgeStyle=orthogonalEdgeStyle;rounded=0;orthogonalLoop=1;jettySize=auto;html=1;exitX=1;exitY=0.5;exitDx=0;exitDy=0;entryX=0;entryY=0.5;entryDx=0;entryDy=0;startArrow=classic;startFill=1;" parent="1" source="pBBPPw8ruFpS8gXTTpw1-75" target="pBBPPw8ruFpS8gXTTpw1-6" edge="1">
                    <mxGeometry relative="1" as="geometry"/>
                </mxCell>
                <mxCell id="pBBPPw8ruFpS8gXTTpw1-75" value="ETH" style="rounded=0;whiteSpace=wrap;html=1;" parent="1" vertex="1">
                    <mxGeometry x="70" y="484.88" width="70" height="30" as="geometry"/>
                </mxCell>
                <mxCell id="pBBPPw8ruFpS8gXTTpw1-82" value="Exchange (Coinbase etc)" style="text;html=1;strokeColor=none;fillColor=none;align=center;verticalAlign=middle;whiteSpace=wrap;rounded=0;fontSize=14;" parent="1" vertex="1">
                    <mxGeometry x="15" y="452" width="182" height="20" as="geometry"/>
                </mxCell>
                <mxCell id="pBBPPw8ruFpS8gXTTpw1-84" value="&lt;font style=&quot;font-size: 16px&quot;&gt;MetaMask Wallet&lt;/font&gt;" style="text;html=1;strokeColor=none;fillColor=none;align=center;verticalAlign=middle;whiteSpace=wrap;rounded=0;" parent="1" vertex="1">
                    <mxGeometry x="631.5" y="326" width="180" height="25" as="geometry"/>
                </mxCell>
                <mxCell id="0qFAtepqO-szBmzJQbjk-2" value="" style="shape=flexArrow;endArrow=classic;html=1;startArrow=block;fillColor=#ffffff;width=8;rounded=1;endSize=3;startSize=3;" parent="1" edge="1">
                    <mxGeometry width="50" height="50" relative="1" as="geometry">
                        <mxPoint x="489.75" y="429" as="sourcePoint"/>
                        <mxPoint x="576.25" y="429" as="targetPoint"/>
                    </mxGeometry>
                </mxCell>
                <mxCell id="2" value="&lt;font style=&quot;font-size: 14px&quot;&gt;Matic Bridge&lt;br&gt;&lt;/font&gt;" style="text;html=1;strokeColor=none;fillColor=none;align=center;verticalAlign=middle;whiteSpace=wrap;rounded=0;" vertex="1" parent="1">
                    <mxGeometry x="462" y="452" width="142" height="20" as="geometry"/>
                </mxCell>
            </root>
        </mxGraphModel>
    </diagram>
</mxfile>